<svg id="SvgjsSvg1001" width="288" height="288" xmlns="http://www.w3.org/2000/svg" version="1.1" xmlns:xlink="http://www.w3.org/1999/xlink" xmlns:svgjs="http://svgjs.com/svgjs"><defs id="SvgjsDefs1002"></defs><g id="SvgjsG1008" transform="matrix(0.9167,0,0,0.9167,11.995221127911293,11.995207072683257)"><svg xmlns="http://www.w3.org/2000/svg" width="288" height="288" viewBox="0 0 570.838 571"><g fill="#000000" class="color000 svgShape"><path fill="#75868e" fill-rule="evenodd" d="M72.875,181.613,249.6,5.511a19.024,19.024,0,0,1,26.826.045l166.73,167.316a19.02,19.02,0,0,1-.048,26.829L266.388,375.806,72.875,181.613Zm158.352-31.248a47.431,47.431,0,1,1-.115,67.075A47.432,47.432,0,0,1,231.228,150.366Z" data-name="Path 3184" transform="translate(122.171)" class="colore61e29 svgShape"></path><path fill="#4e595f" fill-rule="evenodd" d="M219.9,230.647a47.43,47.43,0,1,1-.118,67.072,47.427,47.427,0,0,1,.118-67.072Zm-138.852.428a47.43,47.43,0,1,1-.118,67.072A47.429,47.429,0,0,1,81.051,231.075ZM5.559,248.718,182.277,72.61,375.793,266.8,199.072,442.908a19.028,19.028,0,0,1-26.831-.048L5.51,275.547a19.025,19.025,0,0,1,.048-26.829Z" data-name="Path 3185" transform="translate(0 121.727)" class="color0074ad svgShape"></path><path fill="#4e595f" d="M102.985,230.781v-23.7H93.96V202.94h22.747v4.138h-9.081v23.7Zm16.835,0V202.94h6.833l7.031,22.233,6.8-22.233h6.707v27.841h-4.245V207.418l-7.173,23.363h-4.2l-7.483-23.7v23.7Z" data-name="Path 3186" transform="translate(157.519 340.219)" class="color0074ad svgShape"></path></g></svg></g></svg>