<svg id="Layer_1" enable-background="new 0 0 512 512" height="512" viewBox="0 0 512 512" width="512" xmlns="http://www.w3.org/2000/svg"><path d="m507.603 371.059c-.001-.001-.003-.003-.004-.004-14.586-14.585-31.085-26.391-49.229-35.296 34.099-37.457 47.43-82.462 47.43-89.651 0-7.061-4.884-12.982-11.456-14.577-24.377-6.486-49.898-8.414-74.955-5.777.924-4.675 1.714-9.389 2.341-14.146 3.806-28.909 1.91-57.846-5.634-86.009-2.233-8.334-10.699-12.664-18.378-10.607-28.257 7.568-54.789 20.78-77.885 38.609-15.348-42.422-39.06-69.623-53.223-83.787-2.813-2.813-6.637-4.394-10.615-4.394s-7.793 1.581-10.606 4.394c-14.118 14.118-37.86 41.322-53.223 83.786-23.096-17.829-49.628-31.041-77.885-38.609-8.004-2.142-16.225 2.604-18.37 10.605-5.246 19.571-12.141 55.423-3.302 100.157-25.04-2.635-50.543-.712-74.905 5.764-6.6 1.576-11.507 7.517-11.507 14.599 0 5.453 11.721 50.413 47.431 89.642-18.146 8.905-34.645 20.711-49.231 35.297-2.816 2.813-4.397 6.636-4.397 10.614s1.581 7.793 4.394 10.606c35.019 35.019 81.579 54.305 131.103 54.305 44.678 0 86.944-15.699 120.5-44.483 33.556 28.784 75.821 44.483 120.5 44.483 49.379 0 95.813-19.174 130.796-53.999 2.898-2.735 4.708-6.613 4.708-10.913-.001-4.143-1.682-7.895-4.398-10.609zm-96.911-113.832c20.104-3.509 40.79-3.504 60.895-.007-14.171 38.937-41.3 71.347-77.612 92.309-24.536 14.168-51.495 22.089-78.997 23.515 44.028-26.02 67.684-60.141 79.043-79.815 6.62-11.466 12.209-23.541 16.671-36.002zm-370.284-.008c20.104-3.496 40.79-3.502 60.892.007 4.461 12.461 10.052 24.538 16.671 36 11.356 19.669 35.014 53.798 79.043 79.816-27.5-1.427-54.464-9.349-78.999-23.516-36.303-20.955-63.43-53.365-77.607-92.307zm95.088 159.362c-36.208 0-70.523-12.297-98.18-34.919 12.111-9.914 25.51-17.837 40.033-23.669 8.106 6.474 16.709 12.346 25.666 17.516 17.546 10.132 50.664 25.934 96.034 27.575-19.73 8.845-41.282 13.497-63.553 13.497zm8.456-138.354c-10.659-18.46-34.046-66.383-22.505-129.59 22.68 8.13 43.728 20.532 61.833 36.467-3.105 15.105-4.675 30.519-4.675 45.941 0 23.924 3.708 67.705 30.765 114.417-36.333-22.354-55.918-50.781-65.418-67.235zm112.044 81.374c-43.498-50.888-47.391-106.33-47.391-128.556 0-22.249 3.9-77.679 47.391-128.557 43.491 50.879 47.391 106.305 47.391 128.557 0 22.246-3.901 77.679-47.391 128.556zm77.391-128.557c0-15.422-1.57-30.835-4.675-45.941 18.108-15.937 39.157-28.339 61.839-36.469 11.534 63.209-11.851 111.131-22.51 129.592-9.531 16.507-29.122 44.904-65.419 67.234 27.046-46.691 30.765-90.478 30.765-114.416zm43.109 185.537c-22.27 0-43.823-4.651-63.553-13.498 45.444-1.644 78.588-17.5 96.031-27.573 8.959-5.171 17.562-11.043 25.668-17.518 14.523 5.833 27.922 13.756 40.034 23.669-27.656 22.622-61.972 34.92-98.18 34.92z"/></svg>