<svg id="Capa_1" enable-background="new 0 0 507.469 507.469" height="512" viewBox="0 0 507.469 507.469" width="512" xmlns="http://www.w3.org/2000/svg"><g id="XMLID_268_"><path id="XMLID_329_" d="m354.698 420.436h30v87.001h-30z" fill="#c5715a" transform="matrix(.707 -.707 .707 .707 -219.771 397.297)"/><path id="XMLID_325_" d="m.743 448.973h86.898v30h-86.898z" fill="#e29a74" transform="matrix(.707 -.707 .707 .707 -315.135 167.143)"/><circle id="XMLID_336_" cx="206.887" cy="293.96" fill="#fef2f3" r="206.887"/><path id="XMLID_1754_" d="m206.887 87.072v413.774c114.078 0 206.887-92.809 206.887-206.887s-92.809-206.887-206.887-206.887z" fill="#e4ebef"/><path id="XMLID_462_" d="m206.887 357.71c-35.151 0-63.75-28.599-63.75-63.75s28.598-63.75 63.75-63.75 63.75 28.599 63.75 63.75-28.598 63.75-63.75 63.75zm0-97.5c-18.609 0-33.75 15.141-33.75 33.75s15.14 33.75 33.75 33.75 33.75-15.141 33.75-33.75-15.14-33.75-33.75-33.75z" fill="#ff5b5b"/><path id="XMLID_453_" d="m206.887 437.366c-79.075 0-143.406-64.331-143.406-143.406s64.332-143.407 143.406-143.407 143.406 64.332 143.406 143.407-64.331 143.406-143.406 143.406zm0-254.908c-61.482 0-111.502 50.02-111.502 111.502s50.019 111.501 111.502 111.501 111.502-50.019 111.502-111.501-50.019-111.502-111.502-111.502z" fill="#ff5b5b"/><path id="XMLID_1805_" d="m206.887 150.553v31.904c61.482 0 111.502 50.02 111.502 111.502s-50.019 111.502-111.502 111.502v31.904c79.075 0 143.406-64.331 143.406-143.406s-64.331-143.406-143.406-143.406z" fill="#ff193d"/><path id="XMLID_1791_" d="m206.887 230.21v30c18.609 0 33.75 15.141 33.75 33.75s-15.14 33.75-33.75 33.75v30c35.151 0 63.75-28.599 63.75-63.75s-28.598-63.75-63.75-63.75z" fill="#ff193d"/><path id="XMLID_376_" d="m178.209 183.806h269.135v30h-269.135z" fill="#a7d2d7" transform="matrix(.707 -.707 .707 .707 -48.967 279.396)"/><path id="XMLID_617_" d="m457.214 52.42-19.873-50.254-66.367 66.367v70.127h70.128l66.367-66.367z" fill="#ff193d"/></g></svg>