<svg id="SvgjsSvg1001" width="288" height="288" xmlns="http://www.w3.org/2000/svg" version="1.1" xmlns:xlink="http://www.w3.org/1999/xlink" xmlns:svgjs="http://svgjs.com/svgjs"><defs id="SvgjsDefs1002"></defs><g id="SvgjsG1008" transform="matrix(0.9167,0,0,0.9167,11.995200000000011,11.995200000000011)"><svg xmlns="http://www.w3.org/2000/svg" viewBox="0 0 16 16" width="288" height="288"><path fill="#77878f" d="M11.5 1C10.086 1 8.825 2.884 8 5.829 7.176 2.884 5.914 1 4.5 1 2.015 1 0 7.268 0 15h2C2 7.82 3.12 2 4.5 2 5.881 2 7 7.373 7 14h2c0-6.627 1.12-12 2.5-12C12.881 2 14 7.82 14 15h2c0-7.732-2.015-14-4.5-14z" class="colorFFC107 svgShape"></path></svg></g></svg>