<svg id="Capa_1" enable-background="new 0 0 512.079 512.079" height="512" viewBox="0 0 512.079 512.079" width="512" xmlns="http://www.w3.org/2000/svg"><g><path d="m487.003 356.064c-3.423-2.336-8.088-1.454-10.423 1.968l-17.231 25.253c-5.568 8.161-8.707 17.693-9.076 27.567l-1.768 47.398c-.158 4.229 3.222 7.779 7.5 7.779 4.013 0 7.339-3.177 7.49-7.221l1.768-47.397c.263-7.046 2.502-13.849 6.477-19.672l17.231-25.253c2.334-3.421 1.452-8.087-1.968-10.422z"/><path d="m501.572 276.956-45.237-70.183v-130.383c0-16.73-13.61-30.341-30.34-30.341h-339.939c-16.73 0-30.341 13.61-30.341 30.341v57.622c0 4.143 3.357 7.5 7.5 7.5s7.5-3.357 7.5-7.5v-57.622c0-8.459 6.882-15.341 15.341-15.341h339.938c8.458 0 15.34 6.882 15.34 15.341v226.621c0 2.121-.451 4.185-1.274 6.086l-15.252-16.541c0-26.421 0-176.321 0-206.167 0-4.859-3.922-8.813-8.742-8.813h-70.396c-4.143 0-7.5 3.357-7.5 7.5s3.357 7.5 7.5 7.5h64.138v161.981h-20.041l-4.993-5.414c-8.883-9.634-23.891-9.952-33.192-.864-1.9 1.856-3.417 3.987-4.549 6.278h-136.885c-.235-3.931-3.487-7.049-7.477-7.049s-7.243 3.118-7.477 7.049h-30.176c-1.131-2.292-2.649-4.422-4.549-6.278-9.3-9.087-24.307-8.773-33.192.864l-4.993 5.414h-11.477v-161.981h204.877c4.143 0 7.5-3.357 7.5-7.5s-3.357-7.5-7.5-7.5h-211.136c-4.82 0-8.742 3.954-8.742 8.813v196.881l-23.816 25.828c-.823-1.901-1.274-3.966-1.274-6.087v-139.012c0-4.143-3.357-7.5-7.5-7.5s-7.5 3.357-7.5 7.5v42.775l-45.236 70.182c-14.31 22.2-13.937 50.641.95 72.458l28.883 42.325c3.975 5.825 6.214 12.628 6.476 19.672l1.769 47.398c.152 4.049 3.515 7.348 7.774 7.216 4.14-.155 7.37-3.636 7.216-7.774l-1.769-47.398c-.368-9.871-3.506-19.404-9.075-27.567l-28.884-42.327c-11.479-16.824-11.768-38.757-.733-55.876l32.629-50.622v68.55c0 6.38 2.012 12.516 5.647 17.611l-4.053 4.396c-2.808 3.045-2.615 7.79.43 10.598 3.044 2.808 7.789 2.617 10.598-.43l69.967-75.874c3.056-3.314 8.329-3.581 11.683-.304 2.614 2.555 3.204 6.573 1.435 9.771l-42.062 75.993c-3.099 5.597-2.474 12.404 1.592 17.346 8.179 9.936 10.623 23.654 6.38 35.803-2.089 5.985-3.223 12.231-3.369 18.562l-.809 34.757c-.098 4.19 3.267 7.675 7.501 7.675 4.062 0 7.4-3.244 7.495-7.325l.809-34.759c.11-4.764.963-9.462 2.535-13.965 5.958-17.061 2.525-36.327-8.96-50.28-.129-.156-.148-.371-.051-.549l10.343-18.687h246.401l10.343 18.688c.098.177.078.392-.05.547-11.485 13.952-14.92 33.219-8.961 50.282 1.571 4.499 2.425 9.197 2.535 13.966l.809 34.757c.094 4.044 3.404 7.393 7.673 7.323 4.141-.097 7.42-3.531 7.323-7.673l-.809-34.757c-.147-6.337-1.281-12.582-3.37-18.562-4.243-12.149-1.798-25.868 6.381-35.804 4.065-4.94 4.69-11.748 1.592-17.344l-42.062-75.995c-1.77-3.197-1.18-7.215 1.435-9.771 3.271-3.194 8.554-3.089 11.683.304l69.967 75.874c2.809 3.045 7.553 3.236 10.598.43 3.045-2.808 3.237-7.553.43-10.598l-4.054-4.396c3.635-5.095 5.646-11.231 5.646-17.611v-68.551l32.63 50.624c9.49 14.724 10.72 32.978 3.289 48.828-1.758 3.751-.143 8.217 3.607 9.975 3.735 1.75 8.209.16 9.975-3.607 9.634-20.558 8.041-44.23-4.266-63.323zm-337.027-.913c1.143-2.066 1.923-4.255 2.384-6.485h28.265c.235 3.931 3.487 7.048 7.477 7.048s7.242-3.117 7.477-7.048h134.975c.462 2.23 1.241 4.419 2.385 6.485l5.967 10.781h-194.898zm-23.418 42.307 9.147-16.526h211.502l9.147 16.526zm268.681-48.792v6.733l-6.208-6.733z"/><path d="m90.957 195.116v-10.832c0-4.143-3.357-7.5-7.5-7.5s-7.5 3.357-7.5 7.5v10.832c0 4.143 3.357 7.5 7.5 7.5s7.5-3.357 7.5-7.5z"/><path d="m295.206 168.053-45.909-26.506c-4.348-2.51-9.54-2.511-13.888.001-4.348 2.51-6.943 7.006-6.943 12.025v53.012c0 5.021 2.596 9.516 6.943 12.026 4.332 2.501 9.523 2.52 13.888 0l45.909-26.506c4.348-2.51 6.943-7.005 6.943-12.024 0-5.021-2.595-9.517-6.943-12.028zm-51.741 36.604v-49.156l42.57 24.578z"/></g></svg>