<svg xmlns="http://www.w3.org/2000/svg" width="225" height="225" preserveAspectRatio="xMidYMid meet" version="1.0" viewBox="0 0 2250 2250"><g id="layer101" fill="#010101" stroke="none"><path d="M0 1125 l0 -1125 1125 0 1125 0 0 1125 0 1125 -1125 0 -1125 0 0 -1125z"/></g><g id="layer102" fill="#fff" stroke="none"><path d="M0 1125 l0 -1125 1125 0 1125 0 0 1125 0 1125 -1125 0 -1125 0 0 -1125z m1412 1072 c375 -98 669 -390 774 -768 32 -117 43 -327 24 -446 -37 -235 -141 -436 -314 -609 -142 -141 -299 -232 -491 -285 -102 -27 -343 -38 -449 -19 -454 80 -806 424 -891 873 -19 102 -19 292 0 394 85 447 432 793 882 878 121 23 341 14 465 -18z"/><path d="M975 2150 c-209 -33 -413 -139 -571 -299 l-75 -76 167 -3 168 -3 111 111 110 110 124 0 c119 0 124 1 143 25 24 31 77 34 101 7 22 -25 21 -75 -1 -95 -25 -23 -75 -21 -97 3 -16 18 -31 20 -139 20 l-121 0 -90 -90 -90 -90 343 0 c282 0 342 2 342 14 0 26 42 66 80 76 101 27 183 -76 135 -170 -21 -40 -53 -60 -98 -60 -52 0 -91 23 -111 65 l-17 35 -547 -2 -547 -3 -47 -79 c-26 -43 -45 -83 -42 -87 7 -12 1841 -12 1848 0 6 10 -42 100 -95 178 -46 68 -173 192 -248 242 -90 61 -231 125 -331 151 -97 25 -306 35 -405 20z"/><path d="M1186 1995 c-12 -12 -13 -21 -6 -36 13 -23 33 -25 51 -3 9 11 10 20 3 32 -15 23 -29 25 -48 7z"/><path d="M1455 1805 c-37 -36 -34 -86 6 -119 35 -30 49 -32 89 -11 50 26 57 94 14 133 -33 29 -78 29 -109 -3z"/><path d="M646 1364 c-9 -23 11 -44 43 -45 l26 -2 -25 -4 c-35 -7 -46 -20 -21 -28 36 -11 61 11 61 55 0 40 0 40 -39 40 -27 0 -41 -5 -45 -16z m64 -15 c0 -5 -9 -9 -20 -9 -19 0 -26 11 -14 23 8 8 34 -3 34 -14z"/><path d="M755 1370 c-4 -6 6 -10 22 -10 l28 -1 -27 -20 c-16 -11 -28 -25 -28 -29 0 -15 37 -31 54 -24 23 9 19 26 -4 19 -11 -4 -20 -2 -20 4 0 6 4 11 8 11 20 0 43 27 36 43 -7 19 -58 24 -69 7z"/><path d="M846 1371 c-4 -5 6 -11 21 -13 l28 -4 -27 -12 c-31 -13 -36 -33 -13 -52 15 -13 55 -5 55 11 0 6 -9 7 -20 4 -11 -3 -20 -2 -20 4 0 5 9 13 21 16 31 10 22 49 -13 53 -14 2 -29 -1 -32 -7z"/><path d="M942 1368 c-20 -20 -14 -56 13 -74 23 -15 27 -15 50 0 44 29 28 86 -25 86 -14 0 -31 -5 -38 -12z m63 -33 c0 -23 -34 -33 -45 -14 -13 20 1 40 24 37 13 -2 21 -10 21 -23z"/><path d="M1062 1368 c-31 -31 10 -98 52 -82 25 9 19 22 -11 26 -20 2 -28 9 -28 23 0 15 7 20 30 20 17 1 30 5 30 10 0 15 -58 18 -73 3z"/><path d="M1160 1335 c0 -25 5 -45 10 -45 6 0 10 20 10 45 0 25 -4 45 -10 45 -5 0 -10 -20 -10 -45z"/><path d="M1204 1365 c-8 -19 11 -43 39 -48 18 -4 17 -5 -5 -6 -32 -1 -37 -17 -8 -26 35 -11 60 11 60 55 0 40 0 40 -40 40 -27 0 -43 -5 -46 -15z m52 -23 c-22 -5 -30 3 -21 18 5 8 11 7 22 -2 15 -12 14 -13 -1 -16z"/><path d="M1317 1333 c-3 -26 -3 -53 0 -60 7 -18 23 -16 23 2 0 8 8 15 18 15 16 1 16 1 0 14 -22 16 -24 56 -3 56 8 0 15 5 15 10 0 6 -11 10 -24 10 -21 0 -24 -6 -29 -47z"/><path d="M1390 1335 c0 -25 5 -45 10 -45 6 0 10 20 10 45 0 25 -4 45 -10 45 -5 0 -10 -20 -10 -45z"/><path d="M1440 1361 c-5 -11 -10 -24 -10 -30 0 -16 38 -51 55 -51 19 0 55 35 55 54 0 43 -80 64 -100 27z m68 -25 c4 -21 -14 -37 -35 -29 -14 5 -18 35 -6 47 12 12 38 1 41 -18z"/><path d="M1560 1336 c0 -39 3 -44 27 -49 15 -3 33 -3 40 0 15 6 18 93 3 93 -5 0 -10 -16 -10 -35 0 -28 -4 -35 -20 -35 -16 0 -20 7 -20 35 0 19 -4 35 -10 35 -5 0 -10 -20 -10 -44z"/><path d="M1160 1260 c0 -5 5 -10 10 -10 6 0 10 5 10 10 0 6 -4 10 -10 10 -5 0 -10 -4 -10 -10z"/><path d="M1390 1260 c0 -5 5 -10 10 -10 6 0 10 5 10 10 0 6 -4 10 -10 10 -5 0 -10 -4 -10 -10z"/><path d="M705 1176 c-92 -41 -131 -154 -86 -253 46 -100 204 -135 290 -62 l24 20 -33 34 -33 34 -25 -19 c-14 -11 -38 -20 -54 -20 -41 0 -88 48 -88 90 0 37 23 85 45 94 30 11 80 6 104 -10 21 -15 24 -15 52 12 16 15 29 31 29 35 0 5 -20 20 -43 34 -50 29 -131 34 -182 11z"/><path d="M1035 1174 c-61 -23 -68 -33 -44 -71 l21 -33 38 20 c48 25 108 27 117 4 7 -19 -6 -29 -72 -50 -67 -22 -105 -58 -105 -100 0 -97 81 -143 194 -110 30 9 58 21 61 26 6 10 -21 70 -31 70 -4 0 -28 -8 -55 -17 -45 -16 -50 -16 -65 -1 -23 23 -12 35 53 55 78 24 113 59 113 112 0 31 -7 49 -29 73 -26 29 -35 32 -92 35 -40 2 -79 -3 -104 -13z"/><path d="M1412 1169 c-28 -14 -51 -36 -68 -66 -23 -37 -26 -53 -22 -107 3 -51 10 -71 32 -101 106 -138 316 -68 316 106 l0 39 -125 0 c-80 0 -125 4 -125 10 0 6 11 22 25 35 29 30 71 32 121 9 34 -16 36 -16 59 6 14 13 25 27 25 31 0 5 -20 20 -43 34 -56 32 -134 34 -195 4z m158 -194 c0 -4 -7 -19 -15 -34 -26 -51 -100 -48 -124 6 -6 13 -11 26 -11 28 0 3 34 5 75 5 41 0 75 -2 75 -5z"/><path d="M230 673 c0 -9 29 -58 63 -110 l22 -33 238 0 238 0 33 35 c44 47 94 49 137 6 41 -42 40 -84 -6 -127 l-35 -33 0 -135 0 -135 58 -8 c31 -4 113 -7 182 -6 199 2 373 57 542 170 l72 48 -145 3 c-143 3 -144 3 -164 -22 -30 -38 -69 -49 -110 -32 -63 27 -76 99 -26 145 29 27 30 31 33 134 l3 107 -567 0 c-313 0 -568 -3 -568 -7z"/><path d="M1410 579 l0 -101 40 -39 40 -39 174 0 174 0 50 58 c58 67 113 144 136 190 l17 32 -316 0 -315 0 0 -101z"/><path d="M862 554 c-32 -22 -30 -69 4 -91 24 -15 29 -15 53 -2 36 20 41 71 9 93 -28 20 -38 20 -66 0z"/><path d="M405 429 c72 -74 153 -134 249 -185 74 -39 184 -84 208 -84 4 0 8 57 8 126 l0 125 -36 35 -37 34 -221 0 -220 0 49 -51z"/><path d="M1356 417 c-38 -28 -13 -97 34 -97 9 0 24 8 33 18 46 51 -13 119 -67 79z"/></g></svg>