<?xml version="1.0" encoding="iso-8859-1"?>
<!-- Generator: Adobe Illustrator 19.0.0, SVG Export Plug-In . SVG Version: 6.00 Build 0)  -->
<svg version="1.1" id="Capa_1" xmlns="http://www.w3.org/2000/svg" xmlns:xlink="http://www.w3.org/1999/xlink" x="0px" y="0px"
	 viewBox="0 0 512 512" style="enable-background:new 0 0 512 512;" xml:space="preserve">
<path style="fill:#5AAAE7;" d="M446.645,90.358v328.16c0,14.671-11.894,26.565-26.565,26.565H91.92
	c-14.671,0-26.565-11.894-26.565-26.565V90.358c0-14.671,11.894-26.565,26.565-26.565h328.16
	C434.751,63.793,446.645,75.685,446.645,90.358z"/>
<path style="fill:#1E81CE;" d="M422.664,112.559V399.44c0,12.826-10.398,23.223-23.223,23.223H112.559
	c-12.826,0-23.223-10.398-23.223-23.223V112.559c0-12.826,10.398-23.223,23.223-23.223H399.44
	C412.266,89.336,422.664,99.734,422.664,112.559z"/>
<path style="fill:#96C8EF;" d="M374.759,152.223v204.429c0,9.134-7.405,16.549-16.549,16.549H153.79
	c-9.144,0-16.549-7.416-16.549-16.549V152.223c0-9.144,7.405-16.549,16.549-16.549h204.419
	C367.353,135.674,374.759,143.079,374.759,152.223z"/>
<path style="fill:#C2DFF6;" d="M374.759,152.223v204.429c0,9.134-7.405,16.549-16.549,16.549H179.413
	c-9.144,0-16.549-7.416-16.549-16.549V152.223c0-9.144,7.405-16.549,16.549-16.549h178.796
	C367.353,135.674,374.759,143.079,374.759,152.223z"/>
<g>
	<path style="fill:#2D2D30;" d="M244.284,180.991c0,9.797-6.019,18.197-14.56,21.694c-2.743,1.125-5.737,1.748-8.883,1.748
		c-12.952,0-23.442-10.5-23.442-23.442s10.49-23.442,23.442-23.442c3.145,0,6.139,0.623,8.883,1.748
		C238.265,162.794,244.284,171.194,244.284,180.991z"/>
	<path style="fill:#2D2D30;" d="M215.114,306.783c0,8.923-5.336,16.599-13.002,20.006c-2.713,1.206-5.717,1.879-8.883,1.879
		c-12.078,0-21.875-9.797-21.875-21.885c0-12.078,9.797-21.875,21.875-21.875c3.165,0,6.17,0.673,8.883,1.879
		C209.779,290.194,215.114,297.871,215.114,306.783z"/>
	<path style="fill:#2D2D30;" d="M345.338,256.784c0,12.43-8.069,22.98-19.252,26.688c-2.783,0.934-5.768,1.437-8.872,1.437
		c-15.534,0-28.135-12.59-28.135-28.125s12.6-28.135,28.135-28.135c3.105,0,6.089,0.502,8.872,1.437
		C337.269,233.794,345.338,244.354,345.338,256.784z"/>
</g>
<g>
	<path style="fill:#3E3D42;" d="M244.284,180.991c0,9.797-6.019,18.197-14.56,21.694c-8.551-3.487-14.57-11.897-14.57-21.694
		s6.019-18.207,14.57-21.694C238.265,162.794,244.284,171.194,244.284,180.991z"/>
	<path style="fill:#3E3D42;" d="M215.114,306.783c0,8.923-5.336,16.599-13.002,20.006c-7.657-3.406-13.002-11.083-13.002-20.006
		s5.346-16.589,13.002-19.996C209.779,290.194,215.114,297.871,215.114,306.783z"/>
	<path style="fill:#3E3D42;" d="M345.338,256.784c0,12.43-8.069,22.98-19.252,26.688c-11.184-3.708-19.252-14.258-19.252-26.688
		c0-12.43,8.069-22.99,19.252-26.698C337.269,233.794,345.338,244.354,345.338,256.784z"/>
</g>
<path d="M65.357,406.229c4.16,0,7.536-3.376,7.536-7.536V90.357c0-10.34,8.4-18.87,18.74-19.031c4.16-0.06,7.486-3.477,7.416-7.647
	c-0.06-4.12-3.416-7.416-7.526-7.416h-0.121c-18.519,0.271-33.581,15.565-33.581,34.093v48.72H7.536
	c-4.162,0-7.536,3.374-7.536,7.536c0,4.162,3.374,7.536,7.536,7.536h50.285v39.622H7.536c-4.162,0-7.536,3.374-7.536,7.536
	c0,4.162,3.374,7.536,7.536,7.536h50.285v39.621H7.536C3.374,248.464,0,251.838,0,256c0,4.162,3.374,7.536,7.536,7.536h50.285
	v39.621H7.536c-4.162,0-7.536,3.374-7.536,7.536c0,4.162,3.374,7.536,7.536,7.536h50.285v39.622H7.536
	c-4.162,0-7.536,3.374-7.536,7.536c0,4.162,3.374,7.536,7.536,7.536h50.285v25.77C57.821,402.853,61.197,406.229,65.357,406.229z"/>
<path d="M410.168,437.549H91.924c-7.767,0-14.68-4.642-17.624-11.827c-1.578-3.858-5.969-5.697-9.827-4.12
	c-3.858,1.578-5.697,5.979-4.12,9.827c5.265,12.872,17.655,21.191,31.571,21.191h47.153v51.842c0,4.162,3.374,7.536,7.536,7.536
	c4.162,0,7.536-3.374,7.536-7.536v-51.842h39.622v51.842c0,4.162,3.374,7.536,7.536,7.536c4.162,0,7.536-3.374,7.536-7.536v-51.842
	h39.621v51.842c0,4.162,3.374,7.536,7.536,7.536c4.162,0,7.536-3.374,7.536-7.536v-51.842h39.621v51.842
	c0,4.162,3.374,7.536,7.536,7.536c4.162,0,7.536-3.374,7.536-7.536v-51.842h39.622v51.842c0,4.162,3.374,7.536,7.536,7.536
	c4.162,0,7.536-3.374,7.536-7.536v-51.842h37.245c4.16,0,7.536-3.376,7.536-7.536C417.704,440.916,414.328,437.549,410.168,437.549z
	"/>
<path d="M358.209,380.737c13.284,0,24.085-10.802,24.085-24.085V152.223c0-13.284-10.802-24.085-24.085-24.085H153.79
	c-13.284,0-24.085,10.802-24.085,24.085v204.429c0,13.284,10.802,24.085,24.085,24.085H358.209z M188.296,319.283
	c-4.371-2.452-7.325-7.144-7.325-12.5c0-7.908,6.441-14.339,14.349-14.339s14.339,6.431,14.339,14.339
	C209.658,317.741,197.806,324.659,188.296,319.283z M367.223,356.652c0,4.964-4.039,9.013-9.013,9.013h-93.892v-32.59h102.905
	V356.652z M324.747,143.21h33.462c4.974,0,9.013,4.039,9.013,9.013v165.78H264.318V264.32h18.028
	c3.467,16.057,17.785,28.125,34.867,28.125c19.664,0,35.661-15.997,35.661-35.661c0-17.082-12.068-31.4-28.125-34.867
	c0,0-0.001,0-0.002,0V143.21z M337.802,256.784c0,11.354-9.234,20.589-20.589,20.589c-11.436,0-20.599-9.325-20.599-20.589
	c0-11.285,9.188-20.599,20.599-20.599C328.568,236.185,337.802,245.429,337.802,256.784z M144.777,152.223
	c0-4.974,4.039-9.013,9.013-9.013h155.885v78.707c-13.624,2.944-24.386,13.706-27.329,27.331H226.81v-38.645
	c14.238-2.783,25.01-15.354,25.01-30.396c0-17.072-13.897-30.968-30.978-30.968c-15.042,0-27.611,10.771-30.396,24.999h-45.669
	L144.777,152.223L144.777,152.223z M220.842,196.113c-8.715,0-15.906-7.088-15.906-15.906c0-8.762,7.134-15.896,15.906-15.896
	s15.906,7.134,15.906,15.896C236.748,189.055,229.544,196.113,220.842,196.113z M144.777,356.652V189.31h46.452
	c0.064,0.105,4.114,15.471,20.508,20.509v46.965c0,4.16,3.376,7.536,7.536,7.536h29.972v101.345h-50.56v-29.662
	c14.64-1.668,26.045-14.138,26.045-29.22c0-16.218-13.193-29.411-29.411-29.411c-16.228,0-29.421,13.193-29.421,29.411
	c0,12.058,7.295,22.458,17.715,26.989v31.893h-29.823C148.817,365.665,144.777,361.616,144.777,356.652z"/>
<path d="M504.464,208.843c4.162,0,7.536-3.374,7.536-7.536c0-4.162-3.374-7.536-7.536-7.536h-50.285v-39.622h50.285
	c4.162,0,7.536-3.374,7.536-7.536c0-4.162-3.374-7.536-7.536-7.536h-50.285v-48.72c0-18.8-15.293-34.103-34.103-34.103h-47.153
	V7.536c0-4.162-3.374-7.536-7.536-7.536c-4.162,0-7.536,3.374-7.536,7.536v48.717h-39.622V7.536c0-4.162-3.374-7.536-7.536-7.536
	c-4.162,0-7.536,3.374-7.536,7.536v48.717h-39.621V7.536C263.536,3.374,260.162,0,256,0c-4.162,0-7.536,3.374-7.536,7.536v48.717
	h-39.621V7.536c0-4.162-3.374-7.536-7.536-7.536c-4.162,0-7.536,3.374-7.536,7.536v48.717h-39.622V7.536
	c0-4.162-3.374-7.536-7.536-7.536c-4.162,0-7.536,3.374-7.536,7.536v48.717h-17.41c-4.17,0-7.536,3.376-7.536,7.536
	s3.366,7.536,7.536,7.536c39.477,0,266.815,0,298.409,0c10.5,0,19.031,8.541,19.031,19.031v328.162
	c0,5.255-2.09,10.149-5.898,13.776c-3.014,2.874-3.135,7.647-0.261,10.651c1.487,1.557,3.467,2.341,5.456,2.341
	c1.869,0,3.738-0.693,5.205-2.08c6.813-6.501,10.571-15.273,10.571-24.688v-45.595h50.285c4.162,0,7.536-3.374,7.536-7.536
	c0-4.162-3.374-7.536-7.536-7.536h-50.285v-39.622h50.285c4.162,0,7.536-3.374,7.536-7.536c0-4.162-3.374-7.536-7.536-7.536h-50.285
	v-39.621h50.285c4.162,0,7.536-3.374,7.536-7.536c0-4.162-3.374-7.536-7.536-7.536h-50.285v-39.621L504.464,208.843L504.464,208.843
	z"/>
<g>
</g>
<g>
</g>
<g>
</g>
<g>
</g>
<g>
</g>
<g>
</g>
<g>
</g>
<g>
</g>
<g>
</g>
<g>
</g>
<g>
</g>
<g>
</g>
<g>
</g>
<g>
</g>
<g>
</g>
</svg>
