<svg id="Capa_1" enable-background="new 0 0 511.949 511.949" height="512" viewBox="0 0 511.949 511.949" width="512" xmlns="http://www.w3.org/2000/svg"><path id="XMLID_134_" d="m436.188 151.807 73.901-73.901-55.829-22.077-22.076-55.829-73.901 73.901v56.692l-13.91 13.91c-36.342-31.617-83.787-50.785-135.626-50.785-114.078.001-206.887 92.81-206.887 206.888 0 53.512 20.422 102.343 53.881 139.111l-51.019 51.019 21.213 21.213 51.548-51.549c35.739 29.41 81.474 47.093 131.264 47.093 49.828 0 95.597-17.708 131.348-47.16l51.616 51.616 21.213-21.213-51.097-51.098c33.416-36.759 53.808-85.559 53.808-139.032 0-51.465-18.894-98.597-50.103-134.835l13.964-13.964zm-47.906-65.48 32.806-32.806 10.055 25.426 25.424 10.054-32.806 32.806h-35.479zm-2.648 214.279c0 97.536-79.351 176.887-176.887 176.887s-176.887-79.35-176.887-176.887 79.351-176.888 176.887-176.888c43.567 0 83.497 15.841 114.357 42.054l-29.842 29.842c-23.139-18.663-52.542-29.855-84.515-29.855-74.354 0-134.846 60.492-134.846 134.847s60.492 134.846 134.846 134.846 134.846-60.491 134.846-134.846c0-31.597-10.929-60.687-29.198-83.699l29.86-29.86c25.81 30.749 41.379 70.367 41.379 113.559zm-72.041 0c0 57.813-47.034 104.846-104.846 104.846s-104.846-47.033-104.846-104.846 47.033-104.846 104.846-104.846c23.696 0 45.579 7.906 63.157 21.213l-29.516 29.517c-9.772-6.097-21.298-9.633-33.64-9.633-35.151 0-63.75 28.599-63.75 63.75s28.598 63.75 63.75 63.75 63.75-28.599 63.75-63.75c0-11.96-3.317-23.157-9.069-32.731l29.584-29.584c12.924 17.432 20.58 38.995 20.58 62.314zm-71.097 0c0 18.609-15.14 33.75-33.75 33.75s-33.75-15.141-33.75-33.75 15.14-33.75 33.75-33.75c3.968 0 7.776.694 11.316 1.958l-21.185 21.186 21.213 21.213 20.822-20.822c1.026 3.224 1.584 6.655 1.584 10.215z"/></svg>